<svg width="24" height="24" viewBox="0 0 24 24" fill="none" xmlns="http://www.w3.org/2000/svg">
<path d="M15.5399 8.45992C17.4999 10.4199 17.4999 13.5799 15.5399 15.5399C13.5799 17.4999 10.4199 17.4999 8.46992 15.5399C6.51992 13.5799 6.49992 10.4199 8.46992 8.45992C10.4399 6.49992 13.5799 6.49992 15.5399 8.45992ZM19.4699 4.54992C19.4699 4.54992 18.4999 4.66992 17.4299 5.35992C17.2597 4.24393 16.7336 3.21276 15.9299 2.41992C15.4151 2.91684 15.0418 3.54187 14.8485 4.2308C14.6552 4.91972 14.6488 5.6477 14.8299 6.33992C16.2199 6.69992 17.2999 7.77992 17.6599 9.16992C18.7799 9.46992 20.3399 9.31992 21.5799 8.06992C20.7959 7.27807 19.7802 6.75623 18.6799 6.57992C19.0699 5.99992 19.3799 5.32992 19.4699 4.54992ZM4.52992 19.4499C4.52992 19.4499 5.49992 19.3299 6.56992 18.6399C6.71992 19.6799 7.21992 20.7299 8.06992 21.5799C9.31992 20.3399 9.46992 18.7799 9.16992 17.6599C8.48843 17.484 7.86652 17.1287 7.36883 16.631C6.87115 16.1333 6.51586 15.5114 6.33992 14.8299C5.21992 14.5299 3.65992 14.6799 2.41992 15.9299C3.25992 16.7699 4.28992 17.2699 5.31992 17.4199C4.92992 17.9999 4.61992 18.6799 4.52992 19.4499Z" fill="white"/>
</svg>
