<svg width="24" height="24" viewBox="0 0 24 24" fill="none" xmlns="http://www.w3.org/2000/svg">
<path d="M20.0559 20.057L18.4012 20.5005L17.4244 16.8545C18.197 16.4676 18.8126 15.826 19.1673 15.0381C19.5221 14.2501 19.5942 13.3639 19.3716 12.5289C18.1903 8.12266 15.7359 4.25828 15.6319 4.09609C15.5472 3.96374 15.4231 3.86132 15.2771 3.80328C15.1311 3.74525 14.9705 3.73454 14.8181 3.77266L12.7687 4.28547C12.7687 3.51203 12.7519 3.02641 12.7491 2.96547C12.7416 2.80435 12.6824 2.64994 12.5802 2.52514C12.478 2.40034 12.3383 2.3118 12.1819 2.27266L9.18188 1.52266C9.02945 1.48454 8.8689 1.49525 8.7229 1.55328C8.57689 1.61132 8.45279 1.71374 8.36813 1.84609C8.26406 2.00828 5.80969 5.87078 4.62844 10.2836C4.40581 11.1186 4.47794 12.0048 4.83265 12.7927C5.18736 13.5807 5.80296 14.2223 6.57562 14.6092L5.59875 18.2505L3.94406 17.807C3.75186 17.7556 3.54709 17.7826 3.37479 17.8821C3.20249 17.9816 3.07678 18.1455 3.02531 18.3377C2.97384 18.5299 3.00083 18.7346 3.10035 18.9069C3.19986 19.0792 3.36374 19.2049 3.55594 19.2564L8.05594 20.462C8.11928 20.4787 8.1845 20.4872 8.25 20.4873C8.43211 20.4876 8.60808 20.4215 8.74506 20.3015C8.88205 20.1815 8.97069 20.0158 8.99445 19.8352C9.01821 19.6546 8.97546 19.4716 8.87419 19.3203C8.77291 19.1689 8.62003 19.0596 8.44406 19.0127L7.04719 18.6377L8.02406 14.9917C8.1 14.9964 8.175 14.9992 8.25 14.9992C8.99406 14.9971 9.72078 14.7744 10.3382 14.3592C10.9557 13.944 11.4361 13.355 11.7188 12.6667C11.8294 13.2639 11.9625 13.8686 12.1228 14.4686C12.3374 15.2666 12.8091 15.9715 13.4648 16.4743C14.1205 16.9772 14.9237 17.2499 15.75 17.2502C15.825 17.2502 15.9 17.2502 15.9759 17.2427L16.9528 20.8886L15.5559 21.2636C15.3808 21.3112 15.2288 21.4207 15.1283 21.5718C15.0277 21.7229 14.9853 21.9053 15.009 22.0853C15.0327 22.2652 15.1209 22.4305 15.2571 22.5504C15.3934 22.6703 15.5685 22.7367 15.75 22.7373C15.8155 22.7372 15.8807 22.7287 15.9441 22.712L20.4441 21.5064C20.6363 21.4549 20.8001 21.3292 20.8997 21.1569C20.9992 20.9846 21.0262 20.7799 20.9747 20.5877C20.9232 20.3955 20.7975 20.2316 20.6252 20.1321C20.4529 20.0326 20.2481 20.0056 20.0559 20.057ZM14.6456 5.36172C14.9063 5.80234 15.3234 6.53734 15.7894 7.46734L12.75 8.22859C12.7106 7.29109 12.7144 6.51766 12.7266 5.99828C12.7266 5.94578 12.7313 5.89328 12.7341 5.84078L14.6456 5.36172ZM9.35437 3.11172L11.2641 3.58891C11.2697 3.99016 11.2641 4.58922 11.2444 5.32047C11.2388 5.43391 11.2294 5.61953 11.2228 5.86797C11.2228 5.96172 11.2134 6.05547 11.2078 6.14922L8.12719 5.38422C8.625 4.37547 9.07875 3.57766 9.35437 3.11172ZM17.3287 4.08578C17.2846 3.99764 17.2583 3.90167 17.2513 3.80335C17.2442 3.70503 17.2567 3.60628 17.2878 3.51277C17.319 3.41926 17.3683 3.3328 17.4329 3.25836C17.4975 3.18391 17.5762 3.12293 17.6644 3.07891L19.1644 2.32891C19.2525 2.28483 19.3485 2.25855 19.4468 2.25156C19.5451 2.24458 19.6438 2.25702 19.7373 2.28819C19.8308 2.31935 19.9173 2.36863 19.9917 2.4332C20.0662 2.49778 20.1272 2.57638 20.1713 2.66453C20.2153 2.75268 20.2416 2.84865 20.2486 2.94696C20.2556 3.04526 20.2431 3.14398 20.212 3.23748C20.1808 3.33098 20.1315 3.41742 20.067 3.49187C20.0024 3.56633 19.9238 3.62733 19.8356 3.67141L18.3356 4.42141C18.2475 4.46555 18.1515 4.49188 18.0532 4.4989C17.9549 4.50592 17.8561 4.49349 17.7626 4.46231C17.6691 4.43114 17.5826 4.38184 17.5082 4.31723C17.4338 4.25263 17.3728 4.17398 17.3287 4.08578ZM21.75 6.75016C21.75 6.94907 21.671 7.13983 21.5303 7.28049C21.3897 7.42114 21.1989 7.50016 21 7.50016H19.5C19.3011 7.50016 19.1103 7.42114 18.9697 7.28049C18.829 7.13983 18.75 6.94907 18.75 6.75016C18.75 6.55124 18.829 6.36048 18.9697 6.21983C19.1103 6.07917 19.3011 6.00016 19.5 6.00016H21C21.1989 6.00016 21.3897 6.07917 21.5303 6.21983C21.671 6.36048 21.75 6.55124 21.75 6.75016ZM3.07875 1.91453C3.12278 1.82634 3.18376 1.74769 3.2582 1.68308C3.33265 1.61847 3.4191 1.56917 3.51261 1.538C3.60613 1.50683 3.70487 1.4944 3.80319 1.50142C3.90151 1.50843 3.99749 1.53477 4.08563 1.57891L5.58563 2.32891C5.67377 2.37298 5.75238 2.43399 5.81695 2.50844C5.88153 2.58289 5.9308 2.66934 5.96197 2.76283C5.99313 2.85633 6.00558 2.95505 5.99859 3.05336C5.99161 3.15166 5.96532 3.24763 5.92125 3.33578C5.87718 3.42393 5.81617 3.50254 5.74172 3.56711C5.66726 3.63168 5.58082 3.68096 5.48732 3.71212C5.2985 3.77507 5.0924 3.76042 4.91437 3.67141L3.41437 2.92141C3.32618 2.87738 3.24753 2.8164 3.18292 2.74195C3.11831 2.66751 3.06901 2.58106 3.03784 2.48754C3.00667 2.39403 2.99424 2.29529 3.00126 2.19696C3.00828 2.09864 3.03461 2.00267 3.07875 1.91453ZM3.75 6.75016H2.25C2.05109 6.75016 1.86032 6.67114 1.71967 6.53049C1.57902 6.38983 1.5 6.19907 1.5 6.00016C1.5 5.80124 1.57902 5.61048 1.71967 5.46983C1.86032 5.32917 2.05109 5.25016 2.25 5.25016H3.75C3.94891 5.25016 4.13968 5.32917 4.28033 5.46983C4.42098 5.61048 4.5 5.80124 4.5 6.00016C4.5 6.19907 4.42098 6.38983 4.28033 6.53049C4.13968 6.67114 3.94891 6.75016 3.75 6.75016Z" fill="white"/>
</svg>
