<svg width="24" height="24" viewBox="0 0 24 24" fill="none" xmlns="http://www.w3.org/2000/svg">
<path d="M12.0444 22L7.86667 13.8182C6.81481 13.8636 5.90756 13.553 5.14489 12.8864C4.38222 12.2197 4.00059 11.3182 4 10.1818C4 9.40909 4.21867 8.71212 4.656 8.09091C5.09333 7.4697 5.64504 7.0303 6.31111 6.77273C6.57778 5.39394 7.24089 4.25364 8.30044 3.35182C9.36 2.45 10.5932 1.99939 12 2C13.4068 2.00061 14.6403 2.45152 15.7004 3.35273C16.7606 4.25394 17.4234 5.39394 17.6889 6.77273C18.3556 7.0303 18.9076 7.4697 19.3449 8.09091C19.7822 8.71212 20.0006 9.40909 20 10.1818C20 11.3182 19.6074 12.2197 18.8222 12.8864C18.037 13.553 17.1556 13.8636 16.1778 13.8182L12.0444 22ZM12.0444 18.0455L14.4444 13.2727C14.0889 13.4545 13.7037 13.5909 13.2889 13.6818C12.8741 13.7727 12.4444 13.8182 12 13.8182C11.6 13.8182 11.1964 13.7727 10.7893 13.6818C10.3822 13.5909 9.98578 13.4545 9.6 13.2727L12.0444 18.0455Z" fill="white"/>
</svg>
