<svg width="24" height="24" viewBox="0 0 24 24" fill="none" xmlns="http://www.w3.org/2000/svg">
<path d="M22 7.42957C20.4047 7.34183 18.822 7.75632 17.4746 8.61472C17.1488 8.24379 16.8139 7.87287 16.4609 7.52004L16.1984 7.27577L16.3252 7.16721C16.7678 6.78742 17.0832 6.28107 17.2288 5.71647C17.3745 5.15187 17.3434 4.55619 17.1397 4.00982C16.8455 3.39298 16.3784 2.87482 15.7952 2.51828C15.2119 2.16175 14.5377 1.98218 13.8543 2.0014V3.81079C14.1763 3.80631 14.4937 3.88778 14.7737 4.04682C15.0537 4.20585 15.2862 4.43667 15.4472 4.71548C15.6011 5.07736 15.4472 5.47543 15.0218 5.90063L14.8137 6.09062C13.8697 5.30424 12.8332 4.63586 11.7273 4.10029C9.4375 3.06894 8.26089 3.54842 7.68164 4.10029C7.50548 4.27742 7.36424 4.48612 7.26531 4.71548L7.10239 5.19497L5.79908 9.12135C6.83087 11.6907 9.32889 16.2594 14.7594 18.2316L19.2848 16.7298C19.4374 16.6731 19.5718 16.5762 19.6739 16.4494L19.864 16.2865C21.1583 14.9838 20.3256 12.4778 18.5879 10.0441C19.6197 9.4422 20.8078 9.16184 22 9.23896V7.42957ZM18.5697 15.0019H18.5154C17.8909 15.3366 15.3024 14.4862 12.37 11.555C12.0622 11.2474 11.7726 10.9488 11.5101 10.6503C11.4196 10.5508 11.3382 10.4422 11.2477 10.3336L10.768 9.75463L10.5145 9.4018C10.3878 9.22991 10.2611 9.05802 10.1525 8.89517C10.0439 8.73233 10.0077 8.65995 9.93529 8.54234C9.86289 8.42473 9.73617 8.23475 9.65472 8.08095C9.57326 7.92715 9.53706 7.86382 9.48275 7.74621C9.42845 7.6286 9.32889 7.4929 9.27458 7.36624C9.22028 7.23958 9.19313 7.15816 9.14787 7.05864C9.10262 6.95913 9.04831 6.81438 9.01211 6.69676C8.97591 6.57915 8.96686 6.52487 8.94875 6.4344C8.93065 6.34393 8.89445 6.21728 8.87635 6.12681C8.872 6.0545 8.872 5.98199 8.87635 5.90968C8.86783 5.8315 8.86783 5.75263 8.87635 5.67446L8.97591 5.394C9.12977 5.23116 9.79953 5.18592 10.9942 5.72874C11.7921 6.11314 12.5474 6.58011 13.2479 7.12197C12.8662 7.2898 12.4595 7.39372 12.0441 7.42957V9.23896C13.0059 9.18556 13.9391 8.89327 14.7594 8.38855L15.2029 8.80471C15.6011 9.19372 15.9541 9.58274 16.2799 9.95367C15.7335 10.8836 15.5167 11.9704 15.6644 13.0387L17.4746 12.6858C17.4128 12.3448 17.4128 11.9955 17.4746 11.6545C18.6422 13.4367 18.8594 14.7214 18.5697 15.0019ZM5.16552 11.0483L3.1472 17.1098C3.00152 17.5548 2.96327 18.028 3.03558 18.4906C3.10788 18.9533 3.28869 19.3922 3.56321 19.7716C3.83773 20.151 4.19819 20.4601 4.6151 20.6736C5.03201 20.8871 5.49355 20.9989 5.96199 21C6.26995 20.9972 6.57548 20.9452 6.86707 20.8462L12.7682 18.883C9.43762 17.1828 6.7642 14.4278 5.16552 11.0483Z" fill="white"/>
</svg>
