<svg width="24" height="24" viewBox="0 0 24 24" fill="none" xmlns="http://www.w3.org/2000/svg">
<path d="M12 4.72727C14.0303 4.72727 15.75 5.43182 17.1591 6.84091C18.5682 8.25 19.2727 9.9697 19.2727 12C19.2727 14.0303 18.5682 15.75 17.1591 17.1591C15.75 18.5682 14.0303 19.2727 12 19.2727C9.9697 19.2727 8.25 18.5682 6.84091 17.1591C5.43182 15.75 4.72727 14.0303 4.72727 12C4.72727 9.9697 5.43182 8.25 6.84091 6.84091C8.25 5.43182 9.9697 4.72727 12 4.72727ZM12 15.1818C12.7273 15.1818 13.3788 14.9736 13.9545 14.5573C14.5303 14.1409 14.9394 13.5915 15.1818 12.9091H8.81818C9.06061 13.5909 9.4697 14.1403 10.0455 14.5573C10.6212 14.9742 11.2727 15.1824 12 15.1818ZM8.81818 10.1818C8.81818 10.4394 8.90545 10.6555 9.08 10.83C9.25454 11.0045 9.4703 11.0915 9.72727 11.0909C9.98424 11.0903 10.2003 11.003 10.3755 10.8291C10.5506 10.6552 10.6376 10.4394 10.6364 10.1818C10.6352 9.92424 10.5479 9.70848 10.3745 9.53454C10.2012 9.36061 9.98545 9.27333 9.72727 9.27273C9.46909 9.27212 9.25333 9.35939 9.08 9.53454C8.90667 9.7097 8.81939 9.92545 8.81818 10.1818ZM13.3636 10.1818C13.3636 10.4394 13.4509 10.6555 13.6255 10.83C13.8 11.0045 14.0158 11.0915 14.2727 11.0909C14.5297 11.0903 14.7458 11.003 14.9209 10.8291C15.0961 10.6552 15.183 10.4394 15.1818 10.1818C15.1806 9.92424 15.0933 9.70848 14.92 9.53454C14.7467 9.36061 14.5309 9.27333 14.2727 9.27273C14.0145 9.27212 13.7988 9.35939 13.6255 9.53454C13.4521 9.7097 13.3648 9.92545 13.3636 10.1818ZM2 6.54545V3.81818C2 3.31818 2.17818 2.8903 2.53455 2.53455C2.89091 2.17879 3.31879 2.00061 3.81818 2H6.54545V3.81818H3.81818V6.54545H2ZM6.54545 22H3.81818C3.31818 22 2.8903 21.8221 2.53455 21.4664C2.17879 21.1106 2.00061 20.6824 2 20.1818V17.4545H3.81818V20.1818H6.54545V22ZM17.4545 22V20.1818H20.1818V17.4545H22V20.1818C22 20.6818 21.8221 21.11 21.4664 21.4664C21.1106 21.8227 20.6824 22.0006 20.1818 22H17.4545ZM20.1818 6.54545V3.81818H17.4545V2H20.1818C20.6818 2 21.11 2.17818 21.4664 2.53455C21.8227 2.89091 22.0006 3.31879 22 3.81818V6.54545H20.1818Z" fill="white"/>
</svg>
